<?xml version="1.0" encoding="UTF-8"?>
<svg xmlns="http://www.w3.org/2000/svg" viewBox="0 0 1200 720" width="1200" height="720" role="img">
  <title>Harish M — cyanotype meridian</title>
  <desc>Cyanotype meridian for Harish M: designer and data science student. Punch holes from 2 public commits this week. Plates: Agro-Genix, weather, churn. Source github.</desc>
  <defs>
    <linearGradient id="bath" x1="0" y1="0" x2="1" y2="1">
      <stop offset="0%" stop-color="#15608a"/>
      <stop offset="55%" stop-color="#0a3a68"/>
      <stop offset="100%" stop-color="#04101c"/>
    </linearGradient>
    <filter id="chem" x="-10%" y="-10%" width="120%" height="120%">
      <feTurbulence type="fractalNoise" baseFrequency="0.018" numOctaves="3" seed="87" result="n"/>
      <feColorMatrix type="matrix" values="0 0 0 0 0.08  0 0 0 0 0.28  0 0 0 0 0.42  0 0 0 0.22 0" result="tint"/>
      <feBlend in="SourceGraphic" in2="tint" mode="multiply"/>
    </filter>
    <clipPath id="typecol">
      <rect x="28" y="118" width="470" height="430"/>
    </clipPath>
  </defs>
  <rect width="1200" height="720" fill="url(#bath)"/>
  <rect width="1200" height="720" fill="#0a3a68" filter="url(#chem)" opacity="0.55"/>
  <ellipse cx="234.4" cy="141.4" rx="138.4" ry="28.5" fill="#d7f2ea" opacity="0.06993005015887904" transform="rotate(-23.4 234.4 141.4)"/>
<ellipse cx="181.4" cy="398.0" rx="130.3" ry="47.1" fill="#d7f2ea" opacity="0.06262814413215644" transform="rotate(5.9 181.4 398.0)"/>
<ellipse cx="318.4" cy="438.1" rx="111.0" ry="22.1" fill="#d7f2ea" opacity="0.0426223163504212" transform="rotate(14.0 318.4 438.1)"/>
<ellipse cx="1020.4" cy="389.2" rx="97.9" ry="84.2" fill="#d7f2ea" opacity="0.03299487135564853" transform="rotate(6.3 1020.4 389.2)"/>
<ellipse cx="789.8" cy="647.7" rx="78.8" ry="79.0" fill="#d7f2ea" opacity="0.06608033550254457" transform="rotate(-1.8 789.8 647.7)"/>
<ellipse cx="451.6" cy="648.8" rx="143.2" ry="81.3" fill="#d7f2ea" opacity="0.06870243010264797" transform="rotate(0.9 451.6 648.8)"/>
<ellipse cx="719.3" cy="590.4" rx="96.3" ry="39.2" fill="#d7f2ea" opacity="0.040578568847201804" transform="rotate(-1.6 719.3 590.4)"/>
  <line x1="18" y1="18" x2="40" y2="18" stroke="#d7f2ea" stroke-width="0.8" opacity="0.45"/>
<line x1="18" y1="18" x2="18" y2="40" stroke="#d7f2ea" stroke-width="0.8" opacity="0.45"/>
<line x1="1182" y1="18" x2="1160" y2="18" stroke="#d7f2ea" stroke-width="0.8" opacity="0.45"/>
<line x1="1182" y1="18" x2="1182" y2="40" stroke="#d7f2ea" stroke-width="0.8" opacity="0.45"/>
<line x1="18" y1="702" x2="40" y2="702" stroke="#d7f2ea" stroke-width="0.8" opacity="0.45"/>
<line x1="18" y1="702" x2="18" y2="680" stroke="#d7f2ea" stroke-width="0.8" opacity="0.45"/>
<line x1="1182" y1="702" x2="1160" y2="702" stroke="#d7f2ea" stroke-width="0.8" opacity="0.45"/>
<line x1="1182" y1="702" x2="1182" y2="680" stroke="#d7f2ea" stroke-width="0.8" opacity="0.45"/>
  <rect x="28" y="28" width="1144" height="664" fill="none" stroke="#d7f2ea" stroke-width="0.6" opacity="0.25"/>
  <line x1="508" y1="48" x2="508" y2="560" stroke="#d7f2ea" stroke-width="0.6" opacity="0.22"/>

  <g clip-path="url(#typecol)" opacity="0.94">
    <path d="M 44.0,122.0 h 23.5 v 196.0 h -23.5 zM 91.0,122.0 h 23.5 v 196.0 h -23.5 zM 44.0,212.2 h 70.6 v 23.5 h -70.6 z" fill="#d7f2ea"/><path d="M 126.3,318.0 L 156.2,122.0 L 177.4,122.0 L 153.4,318.0 zM 202.5,318.0 L 172.7,122.0 L 151.5,122.0 L 175.5,318.0 zM 143.1,231.8 h 42.7 v 23.5 h -42.7 z" fill="#d7f2ea"/><path d="M 214.3,122.0 h 23.5 v 196.0 h -23.5 zM 243.9,220.0 L 284.8,318.0 L 259.0,318.0 L 234.0,220.0 z" fill="#d7f2ea"/><path d="M 214.3,122.0 h 40.9 q 29.6,0 29.6,51.0 q 0,51.0 -29.6,51.0 H 214.3 zM 237.8,145.5 H 251.0 q 14.1,0 14.1,31.4 q 0,31.4 -14.1,31.4 H 237.8 z" fill="#d7f2ea" fill-rule="evenodd"/><path d="M 66.0,333.7 h 23.5 v 196.0 h -23.5 z" fill="#d7f2ea"/><path d="M 103.6,333.7 h 70.6 v 23.5 h -70.6 zM 103.6,333.7 h 23.5 v 82.3 h -23.5 zM 103.6,412.1 h 70.6 v 23.5 h -70.6 zM 150.6,423.8 h 23.5 v 105.8 h -23.5 zM 103.6,506.2 h 70.6 v 23.5 h -70.6 z" fill="#d7f2ea"/><path d="M 185.9,333.7 h 23.5 v 196.0 h -23.5 zM 232.9,333.7 h 23.5 v 196.0 h -23.5 zM 185.9,423.8 h 70.6 v 23.5 h -70.6 z" fill="#d7f2ea"/>
  </g>

  <text transform="rotate(-90 22 360)" x="22" y="360" font-family="ui-monospace, SFMono-Regular, Menlo, Consolas, monospace" font-size="9"
        fill="#8ec4c0" letter-spacing="0.42em">HARISH M  ·  DESIGNER  ·  DATA</text>

  <text x="48" y="92" font-family="ui-monospace, SFMono-Regular, Menlo, Consolas, monospace" font-size="10" fill="#ff5a32" letter-spacing="0.28em">MERIDIAN</text>
  <text x="48" y="112" font-family="ui-sans-serif, system-ui, 'Segoe UI', sans-serif" font-size="13" fill="#8ec4c0">A week, punched. Not a wall.</text>

  <g id="instrument" aria-hidden="true">
    <circle cx="818" cy="332" r="66.3" fill="none" stroke="#d7f2ea" stroke-width="0.7" opacity="0.12"/>
<circle cx="818" cy="332" r="96.6" fill="none" stroke="#d7f2ea" stroke-width="0.7" opacity="0.12"/>
<circle cx="818" cy="332" r="126.9" fill="none" stroke="#d7f2ea" stroke-width="0.7" opacity="0.12"/>
<circle cx="818" cy="332" r="157.1" fill="none" stroke="#d7f2ea" stroke-width="0.7" opacity="0.12"/>
<circle cx="818" cy="332" r="187.4" fill="none" stroke="#d7f2ea" stroke-width="0.7" opacity="0.12"/>
<circle cx="818" cy="332" r="217.7" fill="none" stroke="#d7f2ea" stroke-width="0.7" opacity="0.12"/>
<circle cx="818" cy="332" r="248.0" fill="none" stroke="#d7f2ea" stroke-width="0.7" opacity="0.28"/>
<line x1="818.0" y1="304.0" x2="818.0" y2="84.0" stroke="#d7f2ea" stroke-width="1.1" opacity="0.28"/>
<text x="818.0" y="68.0" text-anchor="middle" dominant-baseline="middle" font-family="ui-monospace, SFMono-Regular, Menlo, Consolas, monospace" font-size="9" fill="#8ec4c0">00</text>
<line x1="825.2" y1="305.0" x2="882.2" y2="92.5" stroke="#d7f2ea" stroke-width="0.45" opacity="0.08"/>
<line x1="832.0" y1="307.8" x2="942.0" y2="117.2" stroke="#d7f2ea" stroke-width="0.45" opacity="0.08"/>
<line x1="837.8" y1="312.2" x2="993.4" y2="156.6" stroke="#d7f2ea" stroke-width="0.45" opacity="0.08"/>
<line x1="842.2" y1="318.0" x2="1032.8" y2="208.0" stroke="#d7f2ea" stroke-width="0.45" opacity="0.08"/>
<line x1="845.0" y1="324.8" x2="1057.5" y2="267.8" stroke="#d7f2ea" stroke-width="0.45" opacity="0.08"/>
<line x1="846.0" y1="332.0" x2="1066.0" y2="332.0" stroke="#d7f2ea" stroke-width="1.1" opacity="0.28"/>
<text x="1082.0" y="332.0" text-anchor="middle" dominant-baseline="middle" font-family="ui-monospace, SFMono-Regular, Menlo, Consolas, monospace" font-size="9" fill="#8ec4c0">06</text>
<line x1="845.0" y1="339.2" x2="1057.5" y2="396.2" stroke="#d7f2ea" stroke-width="0.45" opacity="0.08"/>
<line x1="842.2" y1="346.0" x2="1032.8" y2="456.0" stroke="#d7f2ea" stroke-width="0.45" opacity="0.08"/>
<line x1="837.8" y1="351.8" x2="993.4" y2="507.4" stroke="#d7f2ea" stroke-width="0.45" opacity="0.08"/>
<line x1="832.0" y1="356.2" x2="942.0" y2="546.8" stroke="#d7f2ea" stroke-width="0.45" opacity="0.08"/>
<line x1="825.2" y1="359.0" x2="882.2" y2="571.5" stroke="#d7f2ea" stroke-width="0.45" opacity="0.08"/>
<line x1="818.0" y1="360.0" x2="818.0" y2="580.0" stroke="#d7f2ea" stroke-width="1.1" opacity="0.28"/>
<text x="818.0" y="596.0" text-anchor="middle" dominant-baseline="middle" font-family="ui-monospace, SFMono-Regular, Menlo, Consolas, monospace" font-size="9" fill="#8ec4c0">12</text>
<line x1="810.8" y1="359.0" x2="753.8" y2="571.5" stroke="#d7f2ea" stroke-width="0.45" opacity="0.08"/>
<line x1="804.0" y1="356.2" x2="694.0" y2="546.8" stroke="#d7f2ea" stroke-width="0.45" opacity="0.08"/>
<line x1="798.2" y1="351.8" x2="642.6" y2="507.4" stroke="#d7f2ea" stroke-width="0.45" opacity="0.08"/>
<line x1="793.8" y1="346.0" x2="603.2" y2="456.0" stroke="#d7f2ea" stroke-width="0.45" opacity="0.08"/>
<line x1="791.0" y1="339.2" x2="578.5" y2="396.2" stroke="#d7f2ea" stroke-width="0.45" opacity="0.08"/>
<line x1="790.0" y1="332.0" x2="570.0" y2="332.0" stroke="#d7f2ea" stroke-width="1.1" opacity="0.28"/>
<text x="554.0" y="332.0" text-anchor="middle" dominant-baseline="middle" font-family="ui-monospace, SFMono-Regular, Menlo, Consolas, monospace" font-size="9" fill="#8ec4c0">18</text>
<line x1="791.0" y1="324.8" x2="578.5" y2="267.8" stroke="#d7f2ea" stroke-width="0.45" opacity="0.08"/>
<line x1="793.8" y1="318.0" x2="603.2" y2="208.0" stroke="#d7f2ea" stroke-width="0.45" opacity="0.08"/>
<line x1="798.2" y1="312.2" x2="642.6" y2="156.6" stroke="#d7f2ea" stroke-width="0.45" opacity="0.08"/>
<line x1="804.0" y1="307.8" x2="694.0" y2="117.2" stroke="#d7f2ea" stroke-width="0.45" opacity="0.08"/>
<line x1="810.8" y1="305.0" x2="753.8" y2="92.5" stroke="#d7f2ea" stroke-width="0.45" opacity="0.08"/>
<text x="865.2" y="351.6" font-family="ui-monospace, SFMono-Regular, Menlo, Consolas, monospace" font-size="7" fill="#6aa0a8" opacity="0.55" text-anchor="middle">MON</text>
<text x="893.2" y="363.2" font-family="ui-monospace, SFMono-Regular, Menlo, Consolas, monospace" font-size="7" fill="#6aa0a8" opacity="0.55" text-anchor="middle">TUE</text>
<text x="921.2" y="374.8" font-family="ui-monospace, SFMono-Regular, Menlo, Consolas, monospace" font-size="7" fill="#6aa0a8" opacity="0.55" text-anchor="middle">WED</text>
<text x="949.2" y="386.3" font-family="ui-monospace, SFMono-Regular, Menlo, Consolas, monospace" font-size="7" fill="#6aa0a8" opacity="0.55" text-anchor="middle">THU</text>
<text x="977.2" y="397.9" font-family="ui-monospace, SFMono-Regular, Menlo, Consolas, monospace" font-size="7" fill="#6aa0a8" opacity="0.55" text-anchor="middle">FRI</text>
<text x="1005.2" y="409.5" font-family="ui-monospace, SFMono-Regular, Menlo, Consolas, monospace" font-size="7" fill="#6aa0a8" opacity="0.55" text-anchor="middle">SAT</text>
<text x="1033.1" y="421.1" font-family="ui-monospace, SFMono-Regular, Menlo, Consolas, monospace" font-size="7" fill="#6aa0a8" opacity="0.55" text-anchor="middle">SUN</text>
<circle cx="818" cy="332" r="6" fill="none" stroke="#ff5a32" stroke-width="1.4"/><circle cx="818" cy="332" r="2" fill="#ff5a32"/>
    <circle cx="723.7" cy="503.8" r="2.2" fill="#ff5a32" opacity="0.92"/>
<circle cx="770.3" cy="528.6" r="2.2" fill="#ff5a32" opacity="0.92"/>
    <line x1="808.5" y1="328.9" x2="1045.9" y2="407.2" stroke="#ff5a32" stroke-width="1.6" stroke-linecap="round" opacity="0.85"/><circle cx="1045.9" cy="407.2" r="3.2" fill="#04101c" stroke="#ff5a32" stroke-width="1.3"/>
    
  </g>

  <circle cx="90" cy="628" r="34" fill="#062033" stroke="#d7f2ea" stroke-width="1"/><path d="M 66.2,622.9 Q 90.0,609.3 113.8,622.9" fill="none" stroke="#8ec4c0" stroke-width="1.2" opacity="0.7"/><rect x="68.9" y="622.9" width="42.2" height="4.8" fill="#d7f2ea" opacity="0.55"/><rect x="68.9" y="629.0" width="42.2" height="4.8" fill="#8ec4c0" opacity="0.55"/><rect x="68.9" y="635.1" width="42.2" height="4.8" fill="#d7f2ea" opacity="0.55"/><rect x="68.9" y="641.3" width="42.2" height="4.8" fill="#8ec4c0" opacity="0.55"/><rect x="68.9" y="647.4" width="42.2" height="4.8" fill="#d7f2ea" opacity="0.55"/>
<text x="134.0" y="620.0" font-family="ui-monospace, SFMono-Regular, Menlo, Consolas, monospace" font-size="9" fill="#ff5a32" letter-spacing="0.14em">01</text><text x="134.0" y="636.0" font-family="ui-sans-serif, system-ui, 'Segoe UI', sans-serif" font-size="11" fill="#d7f2ea">AGRO</text><text x="134.0" y="650.0" font-family="ui-monospace, SFMono-Regular, Menlo, Consolas, monospace" font-size="8" fill="#6aa0a8">CROP · STORE</text>
<circle cx="222" cy="628" r="34" fill="#062033" stroke="#d7f2ea" stroke-width="1"/><circle cx="222.0" cy="628.0" r="9.5" fill="none" stroke="#d7f2ea" stroke-width="1" opacity="0.25" stroke-dasharray="2 4"/><circle cx="222.0" cy="628.0" r="16.3" fill="none" stroke="#d7f2ea" stroke-width="1" opacity="0.43" stroke-dasharray="2 4"/><circle cx="222.0" cy="628.0" r="23.1" fill="none" stroke="#d7f2ea" stroke-width="1" opacity="0.61" stroke-dasharray="2 4"/><path d="M 203.3,633.1 Q 222.0,621.2 240.7,629.7" fill="none" stroke="#ff5a32" stroke-width="1.3" stroke-linecap="round"/>
<text x="266.0" y="620.0" font-family="ui-monospace, SFMono-Regular, Menlo, Consolas, monospace" font-size="9" fill="#ff5a32" letter-spacing="0.14em">02</text><text x="266.0" y="636.0" font-family="ui-sans-serif, system-ui, 'Segoe UI', sans-serif" font-size="11" fill="#d7f2ea">WEATHER</text><text x="266.0" y="650.0" font-family="ui-monospace, SFMono-Regular, Menlo, Consolas, monospace" font-size="8" fill="#6aa0a8">PAST → NEXT</text>
<circle cx="354" cy="628" r="34" fill="#062033" stroke="#d7f2ea" stroke-width="1"/><circle cx="335.3" cy="619.9" r="1.6" fill="#d7f2ea" opacity="0.85"/><circle cx="337.8" cy="621.8" r="1.6" fill="#d7f2ea" opacity="0.85"/><circle cx="340.3" cy="623.1" r="1.6" fill="#d7f2ea" opacity="0.85"/><circle cx="342.8" cy="619.6" r="1.6" fill="#d7f2ea" opacity="0.85"/><circle cx="345.3" cy="623.3" r="1.6" fill="#d7f2ea" opacity="0.85"/><circle cx="347.8" cy="624.3" r="1.6" fill="#d7f2ea" opacity="0.85"/><circle cx="350.3" cy="626.0" r="1.6" fill="#d7f2ea" opacity="0.85"/><circle cx="352.8" cy="625.2" r="1.6" fill="#d7f2ea" opacity="0.85"/><circle cx="355.2" cy="627.8" r="1.6" fill="#d7f2ea" opacity="0.85"/><circle cx="357.7" cy="633.1" r="1.6" fill="#ff5a32" opacity="0.85"/><circle cx="360.2" cy="638.1" r="1.6" fill="#ff5a32" opacity="0.85"/><circle cx="362.7" cy="637.4" r="1.6" fill="#ff5a32" opacity="0.85"/><circle cx="365.2" cy="640.5" r="1.6" fill="#ff5a32" opacity="0.85"/><circle cx="367.7" cy="640.5" r="1.6" fill="#ff5a32" opacity="0.85"/><circle cx="370.2" cy="644.3" r="1.6" fill="#ff5a32" opacity="0.85"/><circle cx="372.7" cy="645.3" r="1.6" fill="#ff5a32" opacity="0.85"/>
<text x="398.0" y="620.0" font-family="ui-monospace, SFMono-Regular, Menlo, Consolas, monospace" font-size="9" fill="#ff5a32" letter-spacing="0.14em">03</text><text x="398.0" y="636.0" font-family="ui-sans-serif, system-ui, 'Segoe UI', sans-serif" font-size="11" fill="#d7f2ea">CHURN</text><text x="398.0" y="650.0" font-family="ui-monospace, SFMono-Regular, Menlo, Consolas, monospace" font-size="8" fill="#6aa0a8">WHO LEAVES</text>

  <text x="48" y="684" font-family="ui-monospace, SFMono-Regular, Menlo, Consolas, monospace" font-size="9" fill="#6aa0a8">PLATE  ·  2026-09-04T07:13:46Z  ·  SEED 30d725a6  ·  2 PUNCHES THIS WEEK  ·  NOW IPL--AUCTION</text>
</svg>
