<svg xmlns="http://www.w3.org/2000/svg" width="460" height="195" viewBox="0 0 460 195">
  <rect width="460" height="195" rx="11" fill="#0D1117" stroke="#30363D" stroke-width="1"/>
  <text x="25" y="38" font-size="18" font-weight="bold" fill="#22D3EE" font-family="Segoe UI, Helvetica, Arial, sans-serif">💻 Top Languages</text>
  <line x1="25" y1="50" x2="435" y2="50" stroke="#30363D" stroke-width="1"/>
  <text x="30" y="70" font-size="13" fill="#F0F6FC" font-family="Segoe UI, Helvetica, Arial, sans-serif">Python</text>
  <rect x="150" y="59" width="280" height="11" rx="3" fill="#30363D"/>
  <rect x="150" y="59" width="120" height="11" rx="3" fill="#3776AB"/>
  <text x="430" y="70" font-size="11" fill="#8B949E" text-anchor="end" font-family="Segoe UI, Helvetica, Arial, sans-serif">42.9%</text>
  <text x="30" y="92" font-size="13" fill="#F0F6FC" font-family="Segoe UI, Helvetica, Arial, sans-serif">HTML</text>
  <rect x="150" y="81" width="280" height="11" rx="3" fill="#30363D"/>
  <rect x="150" y="81" width="60" height="11" rx="3" fill="#F7DF1E"/>
  <text x="430" y="92" font-size="11" fill="#8B949E" text-anchor="end" font-family="Segoe UI, Helvetica, Arial, sans-serif">21.4%</text>
  <text x="30" y="114" font-size="13" fill="#F0F6FC" font-family="Segoe UI, Helvetica, Arial, sans-serif">JavaScript</text>
  <rect x="150" y="103" width="280" height="11" rx="3" fill="#30363D"/>
  <rect x="150" y="103" width="39" height="11" rx="3" fill="#3178C6"/>
  <text x="430" y="114" font-size="11" fill="#8B949E" text-anchor="end" font-family="Segoe UI, Helvetica, Arial, sans-serif">14.3%</text>
  <text x="30" y="136" font-size="13" fill="#F0F6FC" font-family="Segoe UI, Helvetica, Arial, sans-serif">CSS</text>
  <rect x="150" y="125" width="280" height="11" rx="3" fill="#30363D"/>
  <rect x="150" y="125" width="39" height="11" rx="3" fill="#E34F26"/>
  <text x="430" y="136" font-size="11" fill="#8B949E" text-anchor="end" font-family="Segoe UI, Helvetica, Arial, sans-serif">14.3%</text>
  <text x="30" y="158" font-size="13" fill="#F0F6FC" font-family="Segoe UI, Helvetica, Arial, sans-serif">TypeScript</text>
  <rect x="150" y="147" width="280" height="11" rx="3" fill="#30363D"/>
  <rect x="150" y="147" width="19" height="11" rx="3" fill="#563D7C"/>
  <text x="430" y="158" font-size="11" fill="#8B949E" text-anchor="end" font-family="Segoe UI, Helvetica, Arial, sans-serif">7.1%</text>
  <text x="435" y="183" font-size="9" fill="#8B949E" text-anchor="end" font-family="Segoe UI, Helvetica, Arial, sans-serif">Updated Aug 2026</text>
</svg>